<svg width="635" height="563" viewBox="0 0 635 563" fill="none" xmlns="http://www.w3.org/2000/svg">
<path fill-rule="evenodd" clip-rule="evenodd" d="M481.508 561.785L116.397 305.486L70.7694 337.387C61.2602 344.052 53.497 352.911 48.1374 363.212C42.7778 373.514 39.9795 384.956 39.9795 396.568C39.9795 408.181 42.7778 419.622 48.1374 429.924C53.497 440.226 61.2602 449.084 70.7694 455.749L152.52 513.146L247.321 446.904L282.227 471.417L152.639 562.093L47.8823 488.553C33.0949 478.194 21.0221 464.423 12.687 448.408C4.35191 432.392 0 414.603 0 396.548C0 378.494 4.35191 360.705 12.687 344.689C21.0221 328.673 33.0949 314.903 47.8823 304.544L81.5368 281.015L47.8823 257.391C33.0949 247.032 21.0221 233.261 12.687 217.245C4.35191 201.23 0 183.441 0 165.386C0 147.331 4.35191 129.542 12.687 113.527C21.0221 97.511 33.0949 83.7404 47.8823 73.3815L152.917 0L518.315 256.534L563.656 224.865C573.165 218.2 580.928 209.341 586.288 199.039C591.648 188.738 594.446 177.296 594.446 165.684C594.446 154.071 591.648 142.629 586.288 132.328C580.928 122.026 573.165 113.168 563.656 106.502L481.865 49.1061L387.104 115.268L352.198 90.7551L481.905 0L586.702 73.5402H586.543C601.331 83.8991 613.403 97.6697 621.738 113.685C630.074 129.701 634.425 147.49 634.425 165.545C634.425 183.6 630.074 201.388 621.738 217.404C613.403 233.42 601.331 247.19 586.543 257.549L553.093 280.95L586.542 304.434C601.322 314.799 613.387 328.571 621.717 344.586C630.046 360.601 634.395 378.387 634.395 396.439C634.395 414.49 630.046 432.276 621.717 448.291C613.387 464.306 601.322 478.079 586.542 488.443L481.508 561.785ZM518.147 305.398L563.496 337.238C573.006 343.903 580.769 352.761 586.128 363.063C591.488 373.365 594.286 384.806 594.286 396.419C594.286 408.031 591.488 419.473 586.128 429.775C580.769 440.076 573.006 448.935 563.496 455.6L481.626 512.838L151.394 281.018L282.386 189.434L247.48 165L116.535 256.547L71.0074 224.587C61.4903 217.928 53.7196 209.071 48.3545 198.768C42.9893 188.466 40.188 177.022 40.188 165.406C40.188 153.79 42.9893 142.346 48.3545 132.043C53.7196 121.741 61.4903 112.884 71.0074 106.225L152.877 48.9474L483.341 280.962L352 372.699L386.906 397.212L518.147 305.398Z" fill="url(#paint0_linear_504_11)"/>
<defs>
<linearGradient id="paint0_linear_504_11" x1="493.213" y1="0" x2="493.213" y2="397.212" gradientUnits="userSpaceOnUse">
<stop stop-color="#31DBFE"/>
<stop offset="0.9999" stop-color="#BE6AFF"/>
</linearGradient>
</defs>
</svg>
